<?xml version="1.0" encoding="utf-8"?>
<!-- Generator: Adobe Illustrator 21.0.0, SVG Export Plug-In . SVG Version: 6.00 Build 0)  -->
<svg version="1.1" id="Layer_1" xmlns="http://www.w3.org/2000/svg" xmlns:xlink="http://www.w3.org/1999/xlink" x="0px" y="0px"
	 viewBox="0 0 100 100" style="enable-background:new 0 0 100 100;" xml:space="preserve">
<style type="text/css">
	.st0{display:none;}
	.st1{display:inline;fill:#FFFFFF;}
	.st2{display:inline;fill:#F17E23;}
	.st3{display:inline;fill:#CD5C0E;}
	.st4{display:inline;fill:#FFB31A;}
	.st5{display:inline;fill:#FF0000;}
	.st6{display:inline;}
	.st7{display:inline;clip-path:url(#SVGID_2_);fill:#F38022;}
	.st8{display:inline;clip-path:url(#SVGID_2_);fill:#CAE1F9;}
	.st9{display:inline;clip-path:url(#SVGID_2_);fill:#9FC6E2;}
	.st10{display:inline;clip-path:url(#SVGID_2_);fill:#E54728;}
	.st11{display:inline;clip-path:url(#SVGID_2_);fill:#E50027;}
	.st12{display:inline;clip-path:url(#SVGID_2_);fill:#003FA1;}
	.st13{display:inline;clip-path:url(#SVGID_2_);fill:#01204F;}
	.st14{display:inline;fill:#CAE1F9;}
	.st15{display:inline;fill:#9FC6E2;}
	.st16{display:inline;fill:#F5FBFF;}
	.st17{display:inline;fill:#F38022;}
	.st18{display:inline;fill:#D8270F;}
	.st19{clip-path:url(#SVGID_4_);fill:#F38022;}
	.st20{clip-path:url(#SVGID_4_);fill:#FD003A;}
	.st21{fill:#FFFFFF;}
	.st22{fill:#E50027;}
	.st23{fill:#E64C3C;}
	.st24{fill:#01204F;}
</style>
<g class="st0">
	<path class="st1" d="M58.2,39.1c-0.9,0-1.6-0.7-1.6-1.6v-6.9c0-0.3-0.2-0.5-0.5-0.5H43c-0.3,0-0.5,0.2-0.5,0.5v6.9
		c0,0.9-0.7,1.6-1.6,1.6c-0.9,0-1.6-0.7-1.6-1.6v-6.9c0-2,1.6-3.7,3.7-3.7h13.1c2,0,3.7,1.6,3.7,3.7v6.9
		C59.8,38.3,59.1,39.1,58.2,39.1L58.2,39.1z M58.2,39.1"/>
	<path class="st2" d="M72.7,73.1H26.4c-1.7,0-3.1-1.4-3.1-3.1V38.1c0-1.7,1.4-3.1,3.1-3.1h46.3c1.7,0,3.1,1.4,3.1,3.1V70
		C75.9,71.7,74.5,73.1,72.7,73.1L72.7,73.1z M72.7,73.1"/>
	<path class="st3" d="M72.7,34.9h-3.7c1.7,0,3.1,1.4,3.1,3.1V70c0,1.7-1.4,3.1-3.1,3.1h3.7c1.7,0,3.1-1.4,3.1-3.1V38.1
		C75.9,36.3,74.5,34.9,72.7,34.9L72.7,34.9z M72.7,34.9"/>
	<path class="st4" d="M68.7,73.1h4c1.7,0,3.1-1.4,3.1-3.1v-4.1C72.3,66.7,69.5,69.5,68.7,73.1L68.7,73.1z M68.7,73.1"/>
	<path class="st4" d="M30.4,73.1h-4c-1.7,0-3.1-1.4-3.1-3.1v-4.1C26.9,66.7,29.6,69.5,30.4,73.1L30.4,73.1z M30.4,73.1"/>
	<path class="st4" d="M68.7,34.9h4c1.7,0,3.1,1.4,3.1,3.1v4.1C72.3,41.3,69.5,38.5,68.7,34.9L68.7,34.9z M68.7,34.9"/>
	<path class="st2" d="M75.9,70v-4.1c-1.4,0.3-2.6,0.9-3.7,1.8V70c0,1.7-1.4,3.1-3.1,3.1h3.7C74.5,73.1,75.9,71.7,75.9,70L75.9,70z
		 M75.9,70"/>
	<path class="st2" d="M72.7,34.9h-3.7c1.7,0,3.1,1.4,3.1,3.1v2.4c1.1,0.8,2.3,1.4,3.7,1.8v-4.1C75.9,36.3,74.5,34.9,72.7,34.9
		L72.7,34.9z M72.7,34.9"/>
	<path class="st4" d="M30.4,34.9h-4c-1.7,0-3.1,1.4-3.1,3.1v4.1C26.9,41.3,29.6,38.5,30.4,34.9L30.4,34.9z M30.4,34.9"/>
	<rect x="36.1" y="34.9" class="st5" width="4.1" height="38.2"/>
	<rect x="59" y="34.9" class="st5" width="4.1" height="38.2"/>
</g>
<g class="st0">
	<defs>
		<rect id="SVGID_1_" x="27.1" y="24.1" width="43.9" height="56.7"/>
	</defs>
	<clipPath id="SVGID_2_" class="st6">
		<use xlink:href="#SVGID_1_"  style="overflow:visible;"/>
	</clipPath>
	<path class="st7" d="M70.4,49c0.9,1.6-0.2,3.6-2,3.6c-27,0-31.5,0-31.9,0V24.1h31.9c1.8,0,3,2,2,3.6L64,38.4L70.4,49z"/>
	<path class="st8" d="M38.8,63c-1.5-0.4-3.1-0.4-4.7,0l0-36.6c0-1.3,1.1-2.4,2.4-2.4c1.3,0,2.4,1.1,2.4,2.4L38.8,63z"/>
	<path class="st9" d="M38.8,63c-0.8-0.2-1.5-0.3-2.3-0.3V24.1c1.3,0,2.3,1.1,2.3,2.4C38.8,26.5,38.8,63,38.8,63"/>
	<path class="st9" d="M71,79.6"/>
	<path class="st10" d="M45.9,71.3c0,5.2-4.2,9.4-9.4,9.4s-9.4-4.2-9.4-9.4c0-5.2,4.2-9.4,9.4-9.4S45.9,66.1,45.9,71.3"/>
	<path class="st11" d="M45.6,73.7c-1,4.1-4.7,7.1-9.1,7.1V61.9C42.6,61.9,47.1,67.7,45.6,73.7"/>
	<path class="st12" d="M36.5,76.1c-2.6,0-4.7-2.1-4.7-4.7s2.1-4.7,4.7-4.7c2.6,0,4.7,2.1,4.7,4.7C41.2,73.9,39.1,76.1,36.5,76.1"/>
	<path class="st13" d="M41.2,71.3c0,2.6-2.1,4.7-4.7,4.7v-9.4C39.1,66.6,41.2,68.7,41.2,71.3"/>
</g>
<g class="st0">
	<path class="st14" d="M61.8,44.3L54,36.6l3.5-3.5c1-1,2.4-1.6,3.9-1.6c1.5,0,2.9,0.5,3.9,1.6c2.1,2.1,2.1,5.6-0.1,7.8L61.8,44.3z
		 M61.8,44.3"/>
	<path class="st15" d="M65.2,40.9c2.2-2.2,2.2-5.6,0.1-7.8l-7.4,7.4l3.9,3.9L65.2,40.9z M65.2,40.9"/>
	<path class="st14" d="M46.7,65.1L33.3,51.7l8.4-22.3L69,56.7L46.7,65.1z M46.7,65.1"/>
	<path class="st15" d="M69,56.7L55.3,43.1L40,58.4l6.7,6.7L69,56.7z M69,56.7"/>
	<path class="st16" d="M68.3,61.2L37.2,30.1l7.7-7.7L76,53.4L68.3,61.2z M68.3,61.2"/>
	<path class="st14" d="M68.3,61.2L52.7,45.6l7.7-7.7L76,53.4L68.3,61.2z M68.3,61.2"/>
	<path class="st14" d="M28.7,75.1c-1.5,0-2.8-0.6-3.8-1.6c-1-1-1.6-2.4-1.6-3.9c0-1.5,0.6-2.8,1.6-3.9l3.5-3.5l7.7,7.7l-3.5,3.5
		C31.6,74.5,30.2,75.1,28.7,75.1C28.7,75.1,28.7,75.1,28.7,75.1L28.7,75.1z M28.7,75.1"/>
	<path class="st15" d="M36.1,70l-3.9-3.9l-7.4,7.4c1,1,2.4,1.6,3.8,1.6c0,0,0,0,0.1,0c1.5,0,2.8-0.6,3.9-1.6L36.1,70z M36.1,70"/>
	<path class="st15" d="M44.6,63l12.3,12.3L49.1,83L36.8,70.7L44.6,63z M44.6,63"/>
	<rect x="57.6" y="20.8" class="st14" width="3.6" height="6.8"/>
	<rect x="70.8" y="37.1" class="st15" width="6.8" height="3.6"/>
	<path class="st14" d="M67.1,28.6l4.3-4.3L74,27l-4.3,4.3L67.1,28.6z M67.1,28.6"/>
	<path class="st15" d="M68.4,29.9l4.3-4.3L74,27l-4.3,4.3L68.4,29.9z M68.4,29.9"/>
	<path class="st17" d="M36.8,75.9L22.5,61.5l11.3-11.3l14.3,14.3L36.8,75.9z M36.8,75.9"/>
	<path class="st18" d="M36.8,75.9l-7.2-7.2L41,57.4l7.2,7.2L36.8,75.9z M36.8,75.9"/>
</g>
<g>
	<g>
		<defs>
			<rect id="SVGID_3_" x="21.9" y="24.8" width="58.2" height="58.2"/>
		</defs>
		<clipPath id="SVGID_4_">
			<use xlink:href="#SVGID_3_"  style="overflow:visible;"/>
		</clipPath>
		<path class="st19" d="M68.5,52.1L51.7,80.4c-0.7,1.2-1.9,2.1-3.2,2.4c-1.4,0.3-2.8,0.1-4-0.6l-20-11.9c-2.5-1.5-3.3-4.7-1.8-7.3
			l16.7-28.3c0.7-1.2,1.8-2,3.1-2.4l16.3-4.7c1-0.3,2.1-0.3,3.1,0.1c-1.6,1.5-2.9,3.1-4,5c-2.5-0.3-4.9,1.1-5.7,3.5
			c-0.8,2.4,0.1,5,2.3,6.3c2.1,1.3,4.9,0.9,6.6-0.9c1.7-1.8,1.9-4.6,0.4-6.7c1-1.6,2.2-3.1,3.6-4.3c0.2,0.3,0.3,0.7,0.4,1.1
			l2.4,10.7l1,4.5l0.3,1.5C69.4,49.6,69.2,51,68.5,52.1L68.5,52.1z M68.5,52.1"/>
		<path class="st20" d="M78.3,43.1c-2.1,2.9-5.4,4.2-9.5,3.7l-1-4.5c2,0.5,5.3,0.8,7.1-1.7c1.2-1.8,1.4-4.2,0.6-6.2
			c-0.7-2.4-2.6-4.3-4.9-5.2c-1.9-0.6-3.9-0.1-5.4,1.3c0,0-0.1,0-0.1,0.1c-1.4,1.3-2.6,2.7-3.6,4.3c-0.5,0.8-1,1.6-1.4,2.3
			c-0.4,0.7-1.1,1-1.8,1c-0.8,0-1.5-0.4-1.8-1.1c-0.4-0.7-0.4-1.5,0-2.1c0.4-0.8,0.9-1.6,1.4-2.4c1.1-1.8,2.4-3.5,4-5
			c0.2-0.2,0.4-0.4,0.6-0.5c2.5-2.2,6-3,9.2-2c3.7,1.3,6.5,4.2,7.7,7.9C80.7,36.4,80.3,40.2,78.3,43.1L78.3,43.1z M78.3,43.1"/>
	</g>
	<path class="st21" d="M27.1,65.8l19.2,11.4c0.2,0.1,0.5,0.2,0.8,0.1c0.3-0.1,0.5-0.2,0.6-0.5L61.2,54c0.3-0.5,0.1-1.1-0.4-1.4
		L41.7,41.2c-0.2-0.1-0.5-0.2-0.8-0.1c-0.3,0.1-0.5,0.2-0.6,0.5L26.8,64.4C26.5,64.9,26.7,65.5,27.1,65.8L27.1,65.8z M27.1,65.8"/>
	<path class="st22" d="M46.8,78.3c-0.4,0-0.7-0.1-1-0.3L26.6,66.7c-1-0.6-1.3-1.8-0.7-2.8L39.4,41c0.6-1,1.8-1.3,2.8-0.7l19.2,11.4
		c1,0.6,1.3,1.8,0.7,2.8L48.6,77.3c-0.3,0.5-0.7,0.8-1.2,0.9C47.2,78.3,47,78.3,46.8,78.3L46.8,78.3z M27.7,64.9l19.2,11.4
		l13.5-22.9L41.2,42L27.1,65.8L27.7,64.9z M27.7,64.9"/>
	<line class="st23" x1="60" y1="37.3" x2="59.9" y2="37.6"/>
	<line class="st23" x1="56.4" y1="35.1" x2="56.2" y2="35.4"/>
	<path class="st24" d="M36.6,67.5c-0.4,0-0.7-0.2-0.9-0.5c-0.2-0.3-0.2-0.7,0-1L46,48.7c0.2-0.3,0.5-0.5,0.9-0.5
		c0.4,0,0.7,0.2,0.9,0.5c0.2,0.3,0.2,0.7,0,1L37.5,67C37.3,67.3,37,67.5,36.6,67.5L36.6,67.5z M36.6,67.5"/>
	<path class="st24" d="M42.1,70.7c-0.4,0-0.7-0.2-0.9-0.5c-0.2-0.3-0.2-0.7,0-1l10.2-17.3c0.2-0.3,0.5-0.5,0.9-0.5
		c0.4,0,0.7,0.2,0.9,0.5c0.2,0.3,0.2,0.7,0,1L42.9,70.2C42.8,70.5,42.4,70.7,42.1,70.7L42.1,70.7z M42.1,70.7"/>
</g>
</svg>
