<svg id="Layer_1" data-name="Layer 1" xmlns="http://www.w3.org/2000/svg" width="100" height="100" viewBox="0 0 100 100">
  <defs>
    <style>
      .cls-1 {
        fill: #f38022;
      }

      .cls-2 {
        fill: #d3701c;
      }
    </style>
  </defs>
  <title>ico_location</title>
  <path class="cls-1" d="M51,21.44A20.8,20.8,0,0,0,30.22,42.23a20.49,20.49,0,0,0,3.12,10.91l16.26,26.6a1.64,1.64,0,0,0,1.18.8,1.72,1.72,0,0,0,1.77-.83l16.3-26.85a20.5,20.5,0,0,0,2.94-10.63A20.8,20.8,0,0,0,51,21.44Zm0,31.17A10.39,10.39,0,1,1,61.39,42.23,10.38,10.38,0,0,1,51,52.62Z"/>
  <path class="cls-2" d="M51,21.44V31.83a10.39,10.39,0,1,1,0,20.78V80.56a1.71,1.71,0,0,0,1.54-.85l16.3-26.85a20.5,20.5,0,0,0,2.94-10.63A20.8,20.8,0,0,0,51,21.44Z"/>
</svg>
