<?xml version="1.0" encoding="utf-8"?>
<!-- Generator: Adobe Illustrator 21.0.0, SVG Export Plug-In . SVG Version: 6.00 Build 0)  -->
<svg version="1.1" id="Layer_1" xmlns="http://www.w3.org/2000/svg" xmlns:xlink="http://www.w3.org/1999/xlink" x="0px" y="0px"
	 viewBox="0 0 100 100" style="enable-background:new 0 0 100 100;" xml:space="preserve">
<style type="text/css">
	.st0{fill:#FFFFFF;}
	.st1{fill:#F17E23;}
	.st2{fill:#CD5C0E;}
	.st3{fill:#FFB31A;}
	.st4{fill:#FF0000;}
</style>
<g>
	<path class="st0" d="M58.2,39.1c-0.9,0-1.6-0.7-1.6-1.6v-6.9c0-0.3-0.2-0.5-0.5-0.5H43c-0.3,0-0.5,0.2-0.5,0.5v6.9
		c0,0.9-0.7,1.6-1.6,1.6c-0.9,0-1.6-0.7-1.6-1.6v-6.9c0-2,1.6-3.7,3.7-3.7h13.1c2,0,3.7,1.6,3.7,3.7v6.9
		C59.8,38.3,59.1,39.1,58.2,39.1L58.2,39.1z M58.2,39.1"/>
	<path class="st1" d="M72.7,73.1H26.4c-1.7,0-3.1-1.4-3.1-3.1V38.1c0-1.7,1.4-3.1,3.1-3.1h46.3c1.7,0,3.1,1.4,3.1,3.1V70
		C75.9,71.7,74.5,73.1,72.7,73.1L72.7,73.1z M72.7,73.1"/>
	<path class="st2" d="M72.7,34.9h-3.7c1.7,0,3.1,1.4,3.1,3.1V70c0,1.7-1.4,3.1-3.1,3.1h3.7c1.7,0,3.1-1.4,3.1-3.1V38.1
		C75.9,36.3,74.5,34.9,72.7,34.9L72.7,34.9z M72.7,34.9"/>
	<path class="st3" d="M68.7,73.1h4c1.7,0,3.1-1.4,3.1-3.1v-4.1C72.3,66.7,69.5,69.5,68.7,73.1L68.7,73.1z M68.7,73.1"/>
	<path class="st3" d="M30.4,73.1h-4c-1.7,0-3.1-1.4-3.1-3.1v-4.1C26.9,66.7,29.6,69.5,30.4,73.1L30.4,73.1z M30.4,73.1"/>
	<path class="st3" d="M68.7,34.9h4c1.7,0,3.1,1.4,3.1,3.1v4.1C72.3,41.3,69.5,38.5,68.7,34.9L68.7,34.9z M68.7,34.9"/>
	<path class="st1" d="M75.9,70v-4.1c-1.4,0.3-2.6,0.9-3.7,1.8V70c0,1.7-1.4,3.1-3.1,3.1h3.7C74.5,73.1,75.9,71.7,75.9,70L75.9,70z
		 M75.9,70"/>
	<path class="st1" d="M72.7,34.9h-3.7c1.7,0,3.1,1.4,3.1,3.1v2.4c1.1,0.8,2.3,1.4,3.7,1.8v-4.1C75.9,36.3,74.5,34.9,72.7,34.9
		L72.7,34.9z M72.7,34.9"/>
	<path class="st3" d="M30.4,34.9h-4c-1.7,0-3.1,1.4-3.1,3.1v4.1C26.9,41.3,29.6,38.5,30.4,34.9L30.4,34.9z M30.4,34.9"/>
	<rect x="36.1" y="34.9" class="st4" width="4.1" height="38.2"/>
	<rect x="59" y="34.9" class="st4" width="4.1" height="38.2"/>
</g>
</svg>
