<svg id="Layer_1" data-name="Layer 1" xmlns="http://www.w3.org/2000/svg" xmlns:xlink="http://www.w3.org/1999/xlink" width="100" height="100" viewBox="0 0 100 100">
  <defs>
    <style>
      .cls-1 {
        fill: none;
      }

      .cls-2 {
        clip-path: url(#clip-path);
      }

      .cls-3 {
        fill: #00234f;
        fill-rule: evenodd;
      }
    </style>
    <clipPath id="clip-path">
      <rect class="cls-1" x="9.06" y="11.74" width="80.77" height="81.13"/>
    </clipPath>
  </defs>
  <title>ico_whatsapp_blue</title>
  <g class="cls-2">
    <path class="cls-3" d="M78.07,23.53A40.22,40.22,0,0,0,14.77,72L9.06,92.87l21.32-5.59A40.2,40.2,0,0,0,49.6,92.17h0A40.22,40.22,0,0,0,78.07,23.53M49.62,85.38h0a33.38,33.38,0,0,1-17-4.66L31.37,80,18.72,83.32,22.1,71l-.79-1.26A33.43,33.43,0,1,1,49.62,85.38M68,60.36c-1-.5-5.95-2.93-6.87-3.27s-1.59-.5-2.26.5-2.6,3.27-3.18,3.94-1.17.75-2.18.25a27.45,27.45,0,0,1-8.08-5,30.27,30.27,0,0,1-5.59-7c-.59-1-.06-1.55.44-2.05s1-1.17,1.51-1.76a6.85,6.85,0,0,0,1-1.68,1.85,1.85,0,0,0-.08-1.76c-.25-.5-2.26-5.45-3.1-7.46s-1.64-1.69-2.26-1.72-1.26,0-1.93,0a3.69,3.69,0,0,0-2.68,1.26A11.27,11.27,0,0,0,29.18,43c0,4.94,3.6,9.72,4.1,10.39s7.09,10.82,17.17,15.17a57.9,57.9,0,0,0,5.73,2.12,13.78,13.78,0,0,0,6.33.4c1.93-.29,5.95-2.43,6.78-4.78s.84-4.36.59-4.78S69,60.86,68,60.36"/>
  </g>
</svg>
