<svg id="Layer_1" data-name="Layer 1" xmlns="http://www.w3.org/2000/svg" xmlns:xlink="http://www.w3.org/1999/xlink" width="100" height="100" viewBox="0 0 100 100">
  <defs>
    <style>
      .cls-1 {
        fill: none;
      }

      .cls-2 {
        clip-path: url(#clip-path);
      }

      .cls-3 {
        fill: #00234f;
      }
    </style>
    <clipPath id="clip-path">
      <rect class="cls-1" x="8.75" y="19.25" width="81.4" height="66.11"/>
    </clipPath>
  </defs>
  <title>ico_wechat_blue</title>
  <g class="cls-2">
    <path class="cls-3" d="M90.15,62.83c0-10.93-11-19.79-24.59-19.79S41,51.91,41,62.83,52,82.62,65.56,82.62a29.84,29.84,0,0,0,8.86-1.33l7.48,4.07L79.76,79h0C86,75.4,90.15,69.5,90.15,62.83m-35.5-1.18a4.05,4.05,0,1,1,4.05-4.05,4.05,4.05,0,0,1-4.05,4.05m21.83,0a4.05,4.05,0,1,1,4.05-4.05,4.05,4.05,0,0,1-4.05,4.05"/>
    <path class="cls-3" d="M38.68,62.71A17.79,17.79,0,0,1,40,56c2.34-6.54,8.64-11.73,16.68-13.74a32.75,32.75,0,0,1,8.89-1.22c.55,0,1.1,0,1.65,0-1.56-12.29-14-21.87-29.14-21.87-16.19,0-29.31,11-29.31,24.48,0,7.9,4.49,14.92,11.44,19.4l-3,8.2L27.9,66.7a34.44,34.44,0,0,0,10.17,1.51h.76l.72,0a17.72,17.72,0,0,1-.86-5.46M53,32.66A4.37,4.37,0,1,1,48.67,37,4.37,4.37,0,0,1,53,32.66M23.72,41.39A4.37,4.37,0,1,1,28.09,37a4.37,4.37,0,0,1-4.37,4.37"/>
  </g>
</svg>
