<?xml version="1.0" encoding="utf-8"?>
<svg version="1.1" id="Layer_1" xmlns="http://www.w3.org/2000/svg" xmlns:xlink="http://www.w3.org/1999/xlink" x="0px" y="0px"
	 viewBox="0 0 1280 203.1" style="enable-background:new 0 0 1280 203.1;" xml:space="preserve">
<style type="text/css">
	.st0{fill:#FFFFFF;}
</style>
<path class="st0" d="M1.9,0l6.2,0.6l68.1,15l6.2,2.5l7.5,7.5l5.6,6.9l5.6,5.6l5.6,6.9l9.4,10l5.6,6.9l5.6,5.6l4.4,5L143.1,85
	l5.6,6.9l6.9,7.5l4.4,5l7.5,8.8l6.2,6.9l5.6,6.9l16.2,18.8l6.9,8.1l7.5,8.8l5,6.2l3.1,1.9h8.8l13.8-0.6l4.4-1.2l3.1-3.8l1.2-6.2
	l-1.9-5.6l-7.5-8.8l-6.9-7.5l-4.4-5l-5.6-6.2l-4.4-5l-15-16.2l-5.6-6.2l-18.8-20l-5.6-5.6l-4.4-5l-5-5l-4.4-5l-6.2-6.9l-4.4-8.8
	l-1.2-4.4v-3.8l1.2-2.5l1.2-0.6l6.9,0.6l81.2,13.1l74.4,10l33.8,3.8l55,5.6l16.9,1.2l6.2,2.5l7.5,5l10.6,7.5l13.1,10l6.2,5l8.1,6.9
	l6.9,5.6l9.4,8.8l12.5,11.2l5.6,5.6l2.5,1.2h5l3.8-2.5l10.6-10.6l4.4-5l6.2-6.2l5-4.4l8.1-8.1l21.2-16.2l9.4-6.2l3.1-1.2h19.4
	l58.1,0.6l3.8,2.5l1.2,1.2v3.1l-3.1,3.1l-11.2,8.1l-8.1,6.9l-10.6,8.8l-9.4,8.8l-5,4.4L600,140.6l-4.4,5l-5.6,5.6l-4.4,5l-8.1,8.8
	l-4.4,5l-6.9,7.5l-5.6,6.9l-3.1,3.1l-23.1,0.6l-54.4,0.6l-126.9,3.8l-43.1,1.9l-123.1,6.2l-35,2.5l-4.4-0.6l-5-5.6l-5.6-6.9
	l-7.5-9.4l-6.2-8.1l-6.9-8.1l-9.4-12.5l-5.6-6.2l-6.2-8.1l-8.1-10l-6.9-8.8l-8.1-10L65,100l-8.1-10L39.4,68.1l-8.1-10l-5-6.2
	l-6.9-8.8l-8.1-10l-5-8.1l-3.1-6.9L0.6,10L0,4.4L1.9,0z M274.4,75.6l-1.9,1.9v3.8L275,85l23.1,23.1l6.2,1.2l17.5,0.6h56.9l2.5-1.9
	l0.6-2.5l-1.9-3.8l-5.6-5.6l-6.9-5.6l-6.2-5.6l-5.6-3.8l-1.9-0.6l-45.6-3.1l-25.6-1.9H274.4z M369.4,134.4l-33.8,0.6l-3.1,2.5
	l-0.6,4.4l3.8,5.6l6.2,6.2l4.4,5l6.9,7.5l1.2,0.6l29.4-0.6l47.5-1.2l3.8-3.1v-4.4l-3.8-5l-5-5l-4.4-5l-7.5-7.5l-1.2-0.6H369.4z"/>
<path class="st0" d="M1274.4,0h3.1l1.9,2.5v8.1l-4.4,13.1l-3.8,7.5l-8.8,11.2l-5.6,7.5l-13.1,16.9l-8.1,10.6l-7.5,9.4l-5.6,7.5
	l-6.9,8.8l-5,6.2l-6.2,8.1l-8.1,10l-8.1,10.6l-8.1,10l-7.5,10l-6.9,8.1l-5.6,7.5l-6.9,8.1l-8.1,10.6l-6.9,8.1l-2.5,1.9h-10
	l-41.2-2.5l-143.8-6.9l-146.2-4.4l-46.9-0.6l-3.8-1.9l-2.5-4.4l-0.6-1.2v-4.4l2.5-5l7.5-8.1l4.4-5l8.8-9.4l7.5-7.5l4.4-5l16.2-16.2
	l5-4.4l8.1-7.5l8.8-7.5l6.9-5.6l5.6-5l12.5-9.4l8.1-6.2l11.9-8.1l5-1.9l28.1-2.5l70.6-7.5l79.4-10.6l77.5-12.5l82.5-15.6l61.2-13.1
	L1274.4,0z M1148.8,61.9l-30.6,3.1l-4.4,1.2l-8.1,8.1l-4.4,5l-8.8,9.4l-11.2,12.5l-6.2,6.9l-4.4,5l-7.5,8.1l-15,17.5l-5.6,6.2
	l-5.6,6.9l-5.6,6.2l-2.5,3.8v4.4l1.9,3.1l2.5,1.2l18.1,0.6h15.6l6.9-7.5l5.6-6.9l6.9-8.1l5.6-6.9l8.1-9.4l5.6-6.9l7.5-8.8l5.6-6.2
	l5.6-6.9l6.2-6.9l4.4-5l5-6.2l6.9-7.5l4.4-6.9l0.6-1.9v-5l-1.9-2.5H1148.8z M1003.1,75l-61.2,4.4L930.6,80l-4.4,1.2l-6.2,5.6l-6.2,5
	l-8.1,8.1l-3.8,3.1l-0.6,1.2v3.8l1.2,1.9h48.1l31.9-0.6l3.1-1.9l23.8-23.8l1.9-3.1v-4.4L1010,75H1003.1z M870.6,134.4l-5,4.4
	l-8.8,9.4l-6.9,7.5l-1.2,2.5l0.6,3.8l2.5,3.1l3.1,0.6l64.4,1.2h10l5-4.4l7.5-8.1l4.4-5l5-6.2l0.6-3.1l-1.2-3.1l-1.9-1.9l-59.4-0.6
	H870.6z"/>
<path class="st0" d="M646.2,133.8h71.9l3.8,1.9l2.5,3.1l0.6,5.6l-2.5,5l-6.9,6.9l-4.4,5l-9.4,10l-11.2,12.5l-3.1,3.1l-5.6,0.6
	l-68.8-0.6l-3.8-3.1l-1.9-3.8v-4.4l1.9-3.8l5.6-6.2l6.9-7.5l5.6-6.2l10-10.6l6.2-6.2L646.2,133.8z"/>
<path class="st0" d="M793.8,69.4L800,70l3.1,3.1l-0.6,4.4l-3.1,3.1l-10,7.5l-10.6,8.1l-8.8,7.5l-6.9,5.6l-4.4,2.5l-55,0.6h-17.5
	l-3.8-1.9l-2.5-3.1l-0.6-3.8l1.9-3.1l4.4-4.4l11.2-8.1l16.9-11.2l5.6-3.1l2.5-0.6l31.9-1.9L793.8,69.4z"/>
</svg>
